<svg xmlns="http://www.w3.org/2000/svg" viewBox="0 0 512 512"><path d="M468.907 214.604c-11.423 0-20.682 9.26-20.682 20.682v20.83c-.03 54.338-21.22 105.412-59.666 143.812-38.417 38.372-89.467 59.5-143.76 59.5h-.12c-112.173-.063-203.38-91.372-203.315-203.545.03-54.337 21.22-105.4 59.667-143.813 38.417-38.372 89.468-59.5 143.76-59.5h.12a202.16 202.16 0 0 1 82.68 17.611c10.436 4.65 22.66-.04 27.3-10.474s-.04-22.66-10.474-27.3c-31.516-14.043-65-21.173-99.492-21.192h-.144c-65.33 0-126.767 25.428-172.993 71.6C25.536 129.014.038 190.473 0 255.86s25.4 126.874 71.6 173.136 107.668 71.76 173.055 71.798h.144c65.33 0 126.767-25.427 172.993-71.6 46.262-46.2 71.76-107.668 71.798-173.066v-20.842c0-11.423-9.26-20.683-20.682-20.683zm37.035-174.8c-8.077-8.076-21.172-8.076-29.25 0L244.794 271.7l-52.6-52.6c-8.076-8.077-21.172-8.077-29.248 0s-8.077 21.172 0 29.25l67.234 67.234a20.61 20.61 0 0 0 14.625 6.058 20.62 20.62 0 0 0 14.625-6.058L505.94 69.05c8.077-8.077 8.077-21.172 0-29.25z"/></svg>